<svg width="1033" height="1007" viewBox="0 0 1033 1007" fill="none" xmlns="http://www.w3.org/2000/svg">
<path d="M964.534 0.135683C995.118 2.5378 1009.55 22.6974 1018.71 49.2253C1036.91 101.9 1034.04 155.226 1024.65 208.78C1009.65 294.354 978.771 374.616 941.149 452.219C866.67 605.852 772.771 746.692 658.25 872.963C621.38 913.606 579.505 949.729 539.305 987.241C526.571 999.129 511.151 1007.04 492.713 1006.81C466.229 1006.52 457.415 992.642 468.843 968.393C476.61 951.915 485.001 935.708 492.802 919.251C532.805 834.83 548.717 745.63 537.54 653.005C529.498 586.302 493.322 540.883 415.606 524.063C373.583 514.983 329.801 513.196 286.677 510.62C206.354 505.837 126.79 497.498 50.356 470.191C39.012 466.141 27.9952 460.605 17.7452 454.251C5.50943 446.65 -1.99273 435.073 0.46521 419.986C2.83248 405.535 14.6988 400.7 27.0825 398.991C55.1781 395.121 83.4698 392.744 111.565 388.874C150.255 383.54 189.241 379.206 227.366 371.109C279.306 360.046 331.337 348.346 381.969 332.502C572.162 273.067 745.757 183.002 894.248 47.7336C910.658 32.7924 928.42 19.3264 945.564 5.17987C953.171 0.135682 957.671 -0.288313 964.499 0.115732L964.534 0.135683Z" fill="black"/>
</svg>
